<?xml version="1.0" encoding="UTF-8" standalone="no"?>
<svg
   xmlns:dc="http://purl.org/dc/elements/1.1/"
   xmlns:cc="http://creativecommons.org/ns#"
   xmlns:rdf="http://www.w3.org/1999/02/22-rdf-syntax-ns#"
   xmlns:svg="http://www.w3.org/2000/svg"
   xmlns="http://www.w3.org/2000/svg"
   xmlns:sodipodi="http://sodipodi.sourceforge.net/DTD/sodipodi-0.dtd"
   xmlns:inkscape="http://www.inkscape.org/namespaces/inkscape"
   width="24"
   height="24"
   viewBox="0 0 24 24"
   version="1.1"
   id="svg6"
   sodipodi:docname="baseline-alarm-24px.svg"
   inkscape:version="0.92.2 (5c3e80d, 2017-08-06)"
   inkscape:export-filename="C:\Users\Leo\Downloads\baseline-alarm-24px.png"
   inkscape:export-xdpi="300"
   inkscape:export-ydpi="300">
  <metadata
     id="metadata12">
    <rdf:RDF>
      <cc:Work
         rdf:about="">
        <dc:format>image/svg+xml</dc:format>
        <dc:type
           rdf:resource="http://purl.org/dc/dcmitype/StillImage" />
      </cc:Work>
    </rdf:RDF>
  </metadata>
  <defs
     id="defs10" />
  <sodipodi:namedview
     pagecolor="#ffffff"
     bordercolor="#666666"
     borderopacity="1"
     objecttolerance="10"
     gridtolerance="10"
     guidetolerance="10"
     inkscape:pageopacity="0"
     inkscape:pageshadow="2"
     inkscape:window-width="3840"
     inkscape:window-height="2097"
     id="namedview8"
     showgrid="false"
     inkscape:zoom="22.627417"
     inkscape:cx="-14.064185"
     inkscape:cy="-2.8288344"
     inkscape:window-x="-8"
     inkscape:window-y="-8"
     inkscape:window-maximized="1"
     inkscape:current-layer="svg6" />
  <path
     d="M0 0h24v24H0z"
     fill="none"
     id="path2"
     style="" />
  <path
     inkscape:connector-curvature="0"
     d="m 22,5.72 -4.6,-3.86 -1.29,1.53 4.6,3.86 z M 7.88,3.39 6.6,1.86 2,5.71 3.29,7.24 Z M 12,4 c -4.97,0 -9,4.03 -9,9 0,4.97 4.02,9 9,9 4.97,0 9,-4.03 9,-9 0,-4.97 -4.03,-9 -9,-9 z m 0,16 C 8.13,20 5,16.87 5,13 5,9.13 8.13,6 12,6 c 3.87,0 7,3.13 7,7 0,3.87 -3.13,7 -7,7 z"
     id="path4"
     sodipodi:nodetypes="ccccccccccssssssssss"
     style="" />
  <text
     xml:space="preserve"
     style="font-style:normal;font-variant:normal;font-weight:normal;font-stretch:normal;font-size:26.66666603px;line-height:1.25;font-family:Roboto;-inkscape-font-specification:Roboto;letter-spacing:0px;word-spacing:0px;fill:#000000;fill-opacity:1;stroke:none"
     x="5.9375"
     y="16.625"
     id="text818"><tspan
       sodipodi:role="line"
       id="tspan816"
       x="5.9375"
       y="16.625"
       style="font-size:10.66666698px">zZ</tspan></text>
</svg>
