<?xml version="1.0" encoding="UTF-8" standalone="no"?>
<svg
   xmlns:dc="http://purl.org/dc/elements/1.1/"
   xmlns:cc="http://creativecommons.org/ns#"
   xmlns:rdf="http://www.w3.org/1999/02/22-rdf-syntax-ns#"
   xmlns:svg="http://www.w3.org/2000/svg"
   xmlns="http://www.w3.org/2000/svg"
   xmlns:sodipodi="http://sodipodi.sourceforge.net/DTD/sodipodi-0.dtd"
   xmlns:inkscape="http://www.inkscape.org/namespaces/inkscape"
   fill="#000000"
   height="48"
   viewBox="0 0 24 24"
   width="48"
   version="1.1"
   id="svg14"
   sodipodi:docname="ic_enter_geofence_fat_arrow.svg"
   inkscape:version="0.92.2 (5c3e80d, 2017-08-06)">
  <metadata
     id="metadata20">
    <rdf:RDF>
      <cc:Work
         rdf:about="">
        <dc:format>image/svg+xml</dc:format>
        <dc:type
           rdf:resource="http://purl.org/dc/dcmitype/StillImage" />
        <dc:title></dc:title>
      </cc:Work>
    </rdf:RDF>
  </metadata>
  <defs
     id="defs18" />
  <sodipodi:namedview
     pagecolor="#ffffff"
     bordercolor="#666666"
     borderopacity="1"
     objecttolerance="10"
     gridtolerance="10"
     guidetolerance="10"
     inkscape:pageopacity="0"
     inkscape:pageshadow="2"
     inkscape:window-width="3840"
     inkscape:window-height="2097"
     id="namedview16"
     showgrid="false"
     showguides="true"
     inkscape:guide-bbox="true"
     inkscape:zoom="16"
     inkscape:cx="31.66343"
     inkscape:cy="10.368092"
     inkscape:window-x="1912"
     inkscape:window-y="-8"
     inkscape:window-maximized="1"
     inkscape:current-layer="svg14" />
  <path
     d="M -1.8119611,-1.3258252 H 25.325825 V 25.811961 H -1.8119611 Z"
     id="path10"
     inkscape:connector-curvature="0"
     style="fill:none;stroke-width:1.130741" />
  <path
     style="fill:none"
     inkscape:connector-curvature="0"
     d="m -0.023378,24.020238 0,-24 h 24 v 24 z"
     id="path217" />
  <path
     style="fill:#000000"
     inkscape:connector-curvature="0"
     d="m 4.7222919,11.032223 v 2 H 14.722292 v -2 z m 2.17,-4.8299996 1.42,1.42 c 1.27,-1.58 3.2200001,-2.59 5.4100001,-2.59 3.87,0 7,3.13 7,6.9999996 0,3.87 -3.13,7 -7,7 -2.19,0 -4.1400001,-1.01 -5.4200001,-2.58 l -1.41,1.41 c 1.65,1.94 4.0900001,3.17 6.8300001,3.17 4.97,0 9,-4.03 9,-9 0,-4.9699996 -4.03,-8.9999996 -9,-8.9999996 -2.74,0 -5.1800001,1.23 -6.8300001,3.17 z"
     id="path219" />
  <g
     style="fill:#000000"
     id="g249"
     transform="translate(-31.233603,-13.064898)">
    <path
       id="path235"
       d="M 0,0 H 24 V 24 H 0 Z"
       inkscape:connector-curvature="0"
       style="fill:none" />
    <path
       id="path237"
       d="M 18.4,10.6 C 16.55,8.99 14.15,8 11.5,8 6.85,8 2.92,11.03 1.54,15.22 L 3.9,16 c 1.05,-3.19 4.05,-5.5 7.6,-5.5 1.95,0 3.73,0.72 5.12,1.88 L 13,16 h 9 V 7 Z"
       inkscape:connector-curvature="0" />
  </g>
  <g
     style="fill:#000000"
     id="g265"
     transform="translate(-31.625,13.0625)">
    <path
       id="path251"
       d="M 12,2 C 8.13,2 5,5.13 5,9 c 0,5.25 7,13 7,13 0,0 7,-7.75 7,-13 0,-3.87 -3.13,-7 -7,-7 z m 0,9.5 C 10.62,11.5 9.5,10.38 9.5,9 9.5,7.62 10.62,6.5 12,6.5 c 1.38,0 2.5,1.12 2.5,2.5 0,1.38 -1.12,2.5 -2.5,2.5 z"
       inkscape:connector-curvature="0" />
    <path
       id="path253"
       d="M 0,0 H 24 V 24 H 0 Z"
       inkscape:connector-curvature="0"
       style="fill:none" />
  </g>
  <g
     style="fill:#000000"
     id="g281"
     transform="translate(-56.8125,11.71875)">
    <path
       id="path267"
       d="M 0,0 H 24 V 24 H 0 Z"
       inkscape:connector-curvature="0"
       style="fill:none" />
    <path
       id="path269"
       d="m 9,5 v 2 h 6.59 L 4,18.59 5.41,20 17,8.41 V 15 h 2 V 5 Z"
       inkscape:connector-curvature="0" />
  </g>
  <rect
     style="fill:#ffffff;stroke-width:0.78153408"
     id="rect317"
     width="9.191514"
     height="7.2523651"
     x="5.8210216"
     y="9.0744858"
     ry="0.33253616" />
  <g
     style="fill:#000000"
     id="g313"
     transform="matrix(0.56583651,0,0,0.56583651,-0.75376574,5.2361412)">
    <path
       id="path299"
       d="M 12,8.6245445 V 4 l 8,8 -8,8 0.04804,-4.384335 -7.9519582,-0.04804 V 8.6725864 Z"
       inkscape:connector-curvature="0"
       sodipodi:nodetypes="cccccccc" />
    <path
       id="path301"
       d="M 0,0 H 24 V 24 H 0 Z"
       inkscape:connector-curvature="0"
       style="fill:none" />
  </g>
  <path
     style="fill:#000000;stroke-width:0.3991228"
     id="path321"
     sodipodi:type="arc"
     sodipodi:cx="13.842422"
     sodipodi:cy="12.014194"
     sodipodi:rx="1.0054175"
     sodipodi:ry="1.0054175"
     sodipodi:start="6.2724864"
     sodipodi:end="6.2712647"
     d="m 14.847781,12.003437 a 1.0054175,1.0054175 0 0 1 -0.994296,1.016113 1.0054175,1.0054175 0 0 1 -1.016417,-0.993986 1.0054175,1.0054175 0 0 1 0.993676,-1.01672 1.0054175,1.0054175 0 0 1 1.017024,0.993365 l -1.005346,0.01198 z" />
</svg>
