<?xml version="1.0" encoding="UTF-8" standalone="no"?>
<svg
   xmlns:dc="http://purl.org/dc/elements/1.1/"
   xmlns:cc="http://creativecommons.org/ns#"
   xmlns:rdf="http://www.w3.org/1999/02/22-rdf-syntax-ns#"
   xmlns:svg="http://www.w3.org/2000/svg"
   xmlns="http://www.w3.org/2000/svg"
   xmlns:xlink="http://www.w3.org/1999/xlink"
   xmlns:sodipodi="http://sodipodi.sourceforge.net/DTD/sodipodi-0.dtd"
   xmlns:inkscape="http://www.inkscape.org/namespaces/inkscape"
   fill="#000000"
   height="48"
   viewBox="0 0 24 24"
   width="48"
   version="1.1"
   id="svg14"
   sodipodi:docname="ic_exit_geofence_fat_arrow_pressed.svg"
   inkscape:version="0.92.2 (5c3e80d, 2017-08-06)"
   inkscape:export-filename="C:\Users\Leo\Downloads\ic_exit_geofence_fat_arrow4png.png"
   inkscape:export-xdpi="512"
   inkscape:export-ydpi="512">
  <metadata
     id="metadata20">
    <rdf:RDF>
      <cc:Work
         rdf:about="">
        <dc:format>image/svg+xml</dc:format>
        <dc:type
           rdf:resource="http://purl.org/dc/dcmitype/StillImage" />
        <dc:title></dc:title>
      </cc:Work>
    </rdf:RDF>
  </metadata>
  <defs
     id="defs18">
    <clipPath
       clipPathUnits="userSpaceOnUse"
       id="clipPath389">
      <use
         x="0"
         y="0"
         xlink:href="#g385"
         id="use391"
         width="100%"
         height="100%" />
    </clipPath>
  </defs>
  <sodipodi:namedview
     pagecolor="#ffffff"
     bordercolor="#666666"
     borderopacity="1"
     objecttolerance="10"
     gridtolerance="10"
     guidetolerance="10"
     inkscape:pageopacity="0"
     inkscape:pageshadow="2"
     inkscape:window-width="3840"
     inkscape:window-height="2097"
     id="namedview16"
     showgrid="false"
     showguides="true"
     inkscape:guide-bbox="true"
     inkscape:zoom="45.254834"
     inkscape:cx="15.942619"
     inkscape:cy="21.471771"
     inkscape:window-x="1912"
     inkscape:window-y="-8"
     inkscape:window-maximized="1"
     inkscape:current-layer="svg14">
    <sodipodi:guide
       position="9.380434,11.985806"
       orientation="0,1"
       id="guide354"
       inkscape:locked="false" />
  </sodipodi:namedview>
  <path
     d="M -1.8119611,-1.3258252 H 25.325825 V 25.811961 H -1.8119611 Z"
     id="path10"
     inkscape:connector-curvature="0"
     style="fill:none;stroke-width:1.130741"
     inkscape:export-xdpi="245"
     inkscape:export-ydpi="245" />
  <path
     style="fill:none"
     inkscape:connector-curvature="0"
     d="m 23.246234,24.020238 v -24 H -0.75376624 v 24 z"
     id="path217"
     inkscape:export-xdpi="245"
     inkscape:export-ydpi="245" />
  <path
     style="fill:none;stroke-width:1"
     d="M 18.572266 7.7890625 A 16.24136 16.24136 0 0 0 2.5214844 24.212891 A 16.24136 16.24136 0 0 0 18.939453 40.269531 A 16.24136 16.24136 0 0 0 33.519531 30.763672 L 26.119141 30.763672 L 26.119141 23.951172 L 18.761719 24.029297 L 26.119141 23.941406 L 26.119141 17.572266 L 33.644531 17.572266 A 16.24136 16.24136 0 0 0 18.572266 7.7890625 z "
     transform="scale(0.5)"
     id="path412" />
  <g
     id="g408">
    <path
       style="fill:#000000;stroke-width:2"
       d="m 18.941406,6.0644531 c -0.602394,0 -1.194658,0.03568 -1.78125,0.09375 C 12.972634,6.5727523 9.2290223,8.4353955 6.3867188,11.236328 6.1980395,11.421866 6.0221867,11.618853 5.8417969,11.8125 5.6568921,12.011261 5.4592623,12.197294 5.2832031,12.404297 l 0.00977,0.0098 c -2.6722723,3.140823 -4.2910157,7.204134 -4.2910157,11.650391 0,4.446257 1.6187434,8.509568 4.2910157,11.650391 l -0.00977,0.0098 c 0.1760592,0.207003 0.373689,0.393036 0.5585938,0.591797 0.1803898,0.193647 0.3562426,0.390634 0.5449219,0.576172 2.8423035,2.800933 6.5859152,4.663576 10.7734372,5.078125 0.586592,0.05807 1.178856,0.09375 1.78125,0.09375 0.01312,0 0.02595,-0.0019 0.03906,-0.002 0.0073,9e-6 0.01422,0.002 0.02148,0.002 4.870954,0 9.259493,-1.95062 12.494141,-5.107422 0.366742,-0.357172 0.71936,-0.730059 1.054687,-1.117187 0.03471,-0.0401 0.075,-0.07482 0.109375,-0.115235 l -0.002,-0.002 c 9.1e-4,-0.0011 0.001,-0.0028 0.002,-0.0039 1.24198,-1.460226 2.542826,-3.623757 2.548828,-4.939453 l -3.978515,0.0078 c -0.419961,0.766965 -0.913939,1.487258 -1.464844,2.158203 -0.257697,0.316766 -0.532129,0.617546 -0.816406,0.910157 -0.125946,0.128706 -0.255915,0.253171 -0.386719,0.376953 -0.166616,0.158668 -0.339303,0.310651 -0.513672,0.460937 -0.272467,0.233587 -0.553677,0.457546 -0.84375,0.669922 -0.128154,0.09418 -0.257199,0.187521 -0.388672,0.277344 -0.208109,0.141732 -0.416847,0.281517 -0.632812,0.412109 -0.263992,0.159633 -0.533546,0.310819 -0.808594,0.453125 -0.232259,0.120168 -0.471288,0.230572 -0.710938,0.337891 -0.13856,0.06198 -0.278985,0.120206 -0.419921,0.177734 -0.352615,0.144217 -0.711745,0.273056 -1.078125,0.388672 -0.202171,0.06348 -0.405257,0.125313 -0.611328,0.179688 -0.202786,0.05391 -0.40697,0.105454 -0.613282,0.15039 -0.377109,0.08122 -0.758561,0.149248 -1.146484,0.199219 -0.142825,0.01885 -0.287483,0.03236 -0.431641,0.04687 -0.421514,0.04101 -0.845513,0.07164 -1.277343,0.07422 -0.03599,3.65e-4 -0.07137,0.0019 -0.107422,0.002 -0.148877,-2.46e-4 -0.293664,-0.01664 -0.441407,-0.02148 -0.351922,-0.01015 -0.702046,-0.02479 -1.046875,-0.06055 -0.294592,-0.03154 -0.582294,-0.08333 -0.871093,-0.132813 -0.185974,-0.03131 -0.373264,-0.05711 -0.556641,-0.0957 -0.340802,-0.07267 -0.674786,-0.162828 -1.005859,-0.259765 -0.110109,-0.03197 -0.221117,-0.06111 -0.330079,-0.0957 C 14.359124,37.278967 13.99801,37.146313 13.644531,37 c -0.06074,-0.02501 -0.121339,-0.05033 -0.18164,-0.07617 -0.377368,-0.162501 -0.748136,-0.337395 -1.107422,-0.53125 -0.02698,-0.0145 -0.05321,-0.03025 -0.08008,-0.04492 -4.3369059,-2.377021 -7.2734379,-6.982348 -7.2734379,-12.283203 0,-3.36614 1.1853173,-6.450183 3.1601563,-8.863281 0.2059603,-0.254049 0.4311507,-0.489823 0.6542968,-0.728516 0.344385,-0.365552 0.7042403,-0.71619 1.0859376,-1.042968 0.070578,-0.06075 0.1371752,-0.126204 0.2089842,-0.185547 0.288637,-0.237318 0.591104,-0.457911 0.898438,-0.671875 0.06968,-0.04869 0.136413,-0.10101 0.207031,-0.148438 0.309412,-0.20715 0.630795,-0.397621 0.957031,-0.580078 0.0794,-0.04447 0.157919,-0.08987 0.238281,-0.132812 0.329235,-0.175761 0.667392,-0.336768 1.011719,-0.486329 0.08694,-0.03771 0.173861,-0.07535 0.261719,-0.111328 0.334093,-0.13706 0.674972,-0.261641 1.021484,-0.373047 0.123654,-0.03955 0.249853,-0.07322 0.375,-0.109375 0.323022,-0.09392 0.648213,-0.183054 0.980469,-0.253906 0.183332,-0.03863 0.370696,-0.06437 0.556641,-0.0957 0.288799,-0.04948 0.576501,-0.101269 0.871093,-0.132812 0.344809,-0.03577 0.694955,-0.0504 1.046875,-0.06055 0.147091,-0.0048 0.291239,-0.02122 0.439453,-0.02149 0.03935,9.7e-5 0.07792,0.0035 0.117188,0.0039 0.423838,0.0028 0.839983,0.03248 1.253906,0.07227 0.157129,0.01564 0.315158,0.03 0.470703,0.05078 0.385252,0.05025 0.766009,0.116251 1.140625,0.197266 0.21741,0.04764 0.431055,0.104507 0.644532,0.162109 0.175585,0.04691 0.348714,0.09883 0.521484,0.152344 0.468933,0.146419 0.928789,0.314893 1.375,0.507813 0.05577,0.02399 0.112578,0.04562 0.167969,0.07031 0.278164,0.124604 0.552156,0.256571 0.820312,0.398438 0.557891,0.295149 1.093658,0.627032 1.603516,0.992187 1.784502,1.278044 3.254748,2.965618 4.275391,4.925781 l 3.839843,-0.05859 c -0.0041,-1.572831 -1.252672,-3.606925 -2.550781,-5.132813 -3.24e-4,-3.81e-4 3.24e-4,-0.0016 0,-0.002 l 0.0039,-0.002 c -0.03497,-0.04112 -0.07601,-0.07639 -0.111328,-0.117188 -0.337266,-0.389323 -0.68956,-0.76403 -1.058594,-1.123047 -3.233995,-3.1528063 -7.620813,-5.0996089 -12.488281,-5.0996089 -0.0073,0 -0.01422,0.00194 -0.02148,0.00195 -0.01311,-2.8e-5 -0.02595,-0.00195 -0.03906,-0.00195 z"
       id="path219-6"
       transform="scale(0.5)"
       inkscape:connector-curvature="0"
       sodipodi:nodetypes="ssccccsccccsscsccccccccccccccccccccccccccccccccccsccccccccccccccccccccccccccscccccccscs" />
  </g>
  <g
     style="fill:#000000"
     id="g249"
     transform="translate(-31.233603,-13.064898)">
    <path
       id="path235"
       d="M 0,0 H 24 V 24 H 0 Z"
       inkscape:connector-curvature="0"
       style="fill:none" />
    <path
       id="path237"
       d="M 18.4,10.6 C 16.55,8.99 14.15,8 11.5,8 6.85,8 2.92,11.03 1.54,15.22 L 3.9,16 c 1.05,-3.19 4.05,-5.5 7.6,-5.5 1.95,0 3.73,0.72 5.12,1.88 L 13,16 h 9 V 7 Z"
       inkscape:connector-curvature="0" />
  </g>
  <g
     style="fill:#000000"
     id="g265"
     transform="translate(-31.625,13.0625)">
    <path
       id="path251"
       d="M 12,2 C 8.13,2 5,5.13 5,9 c 0,5.25 7,13 7,13 0,0 7,-7.75 7,-13 0,-3.87 -3.13,-7 -7,-7 z m 0,9.5 C 10.62,11.5 9.5,10.38 9.5,9 9.5,7.62 10.62,6.5 12,6.5 c 1.38,0 2.5,1.12 2.5,2.5 0,1.38 -1.12,2.5 -2.5,2.5 z"
       inkscape:connector-curvature="0" />
    <path
       id="path253"
       d="M 0,0 H 24 V 24 H 0 Z"
       inkscape:connector-curvature="0"
       style="fill:none" />
  </g>
  <g
     style="fill:#000000"
     id="g281"
     transform="translate(-50.53125,4.65625)">
    <path
       id="path267"
       d="M 0,0 H 24 V 24 H 0 Z"
       inkscape:connector-curvature="0"
       style="fill:none" />
    <path
       id="path269"
       d="m 9,5 v 2 h 6.59 L 4,18.59 5.41,20 17,8.41 V 15 h 2 V 5 Z"
       inkscape:connector-curvature="0" />
  </g>
  <g
     id="g387"
     clip-path="url(#clipPath389)">
    <g
       inkscape:label="Clip"
       id="g385" />
  </g>
  <path
     style="fill:#000000;stroke-width:0.56583649"
     sodipodi:nodetypes="cccccccc"
     inkscape:connector-curvature="0"
     d="M 18.88806,10.104238 V 7.4875018 l 4.526692,4.5266922 -4.526692,4.526692 0.02718,-2.480817 -4.499508,-0.02718 v -3.901464 z"
     id="path299" />
  <path
     style="fill:none;stroke-width:0.56583649"
     inkscape:connector-curvature="0"
     d="M 10.396546,5.2361408 H 23.976622 V 18.816217 H 10.396546 Z"
     id="path301" />
  <path
     style="fill:#000000;stroke-width:0.3991228"
     id="path321"
     sodipodi:type="arc"
     sodipodi:cx="-9.380434"
     sodipodi:cy="12.014194"
     sodipodi:rx="1.0054175"
     sodipodi:ry="1.0054175"
     sodipodi:start="6.2724864"
     sodipodi:end="6.2712647"
     d="m -8.3750741,12.003437 a 1.0054175,1.0054175 0 0 1 -0.9942962,1.016113 1.0054175,1.0054175 0 0 1 -1.0164167,-0.993986 1.0054175,1.0054175 0 0 1 0.9936751,-1.01672 1.0054175,1.0054175 0 0 1 1.0170239,0.993365 l -1.005346,0.01198 z"
     inkscape:export-xdpi="245"
     inkscape:export-ydpi="245"
     transform="scale(-1,1)" />
</svg>
