<?xml version="1.0" encoding="UTF-8" standalone="no"?>
<svg
   xmlns:dc="http://purl.org/dc/elements/1.1/"
   xmlns:cc="http://creativecommons.org/ns#"
   xmlns:rdf="http://www.w3.org/1999/02/22-rdf-syntax-ns#"
   xmlns:svg="http://www.w3.org/2000/svg"
   xmlns="http://www.w3.org/2000/svg"
   xmlns:sodipodi="http://sodipodi.sourceforge.net/DTD/sodipodi-0.dtd"
   xmlns:inkscape="http://www.inkscape.org/namespaces/inkscape"
   fill="#000000"
   height="48"
   viewBox="0 0 24 24"
   width="48"
   version="1.1"
   id="svg14"
   sodipodi:docname="ic_enter_geofence_marker.svg"
   inkscape:version="0.92.2 (5c3e80d, 2017-08-06)">
  <metadata
     id="metadata20">
    <rdf:RDF>
      <cc:Work
         rdf:about="">
        <dc:format>image/svg+xml</dc:format>
        <dc:type
           rdf:resource="http://purl.org/dc/dcmitype/StillImage" />
        <dc:title></dc:title>
      </cc:Work>
    </rdf:RDF>
  </metadata>
  <defs
     id="defs18" />
  <sodipodi:namedview
     pagecolor="#ffffff"
     bordercolor="#666666"
     borderopacity="1"
     objecttolerance="10"
     gridtolerance="10"
     guidetolerance="10"
     inkscape:pageopacity="0"
     inkscape:pageshadow="2"
     inkscape:window-width="3840"
     inkscape:window-height="2097"
     id="namedview16"
     showgrid="false"
     showguides="true"
     inkscape:guide-bbox="true"
     inkscape:zoom="5.6568543"
     inkscape:cx="17.415413"
     inkscape:cy="-52.435511"
     inkscape:window-x="1912"
     inkscape:window-y="-8"
     inkscape:window-maximized="1"
     inkscape:current-layer="svg14" />
  <path
     d="M -1.8119611,-1.3258252 H 25.325825 V 25.811961 H -1.8119611 Z"
     id="path10"
     inkscape:connector-curvature="0"
     style="fill:none;stroke-width:1.130741" />
  <path
     d="m 13.379265,2.5579899 c -5.3558482,0 -9.685078,4.3292299 -9.685078,9.6850781 0,5.355848 4.3292298,9.685078 9.685078,9.685078 5.355848,0 9.685078,-4.32923 9.685078,-9.685078 0,-5.3558482 -4.32923,-9.6850781 -9.685078,-9.6850781 z m 0,17.4331391 c -4.2711192,0 -7.7480624,-3.476942 -7.7480624,-7.748061 0,-4.2711193 3.4769432,-7.7480625 7.7480624,-7.7480625 4.271119,0 7.748062,3.4769432 7.748062,7.7480625 0,4.271119 -3.476943,7.748061 -7.748062,7.748061 z"
     id="path12"
     inkscape:connector-curvature="0"
     sodipodi:nodetypes="ssssssssss"
     style="stroke-width:0.96850771" />
  <rect
     style="fill:#000000;stroke-width:0.61842012"
     id="rect28"
     width="6.9532413"
     height="2.2543461"
     x="1.0617452"
     y="10.925337" />
  <path
     sodipodi:type="star"
     style="fill:#000000;stroke-width:0.5"
     id="path67"
     sodipodi:sides="3"
     sodipodi:cx="8.8549719"
     sodipodi:cy="11.835416"
     sodipodi:r1="4.2602539"
     sodipodi:r2="2.130127"
     sodipodi:arg1="0.0020661128"
     sodipodi:arg2="1.0492637"
     inkscape:flatsided="true"
     inkscape:rounded="-3.469447e-018"
     inkscape:randomized="0"
     d="M 13.115217,11.844218 6.7172266,15.520495 6.7324724,8.1415345 Z"
     inkscape:transform-center-x="-0.50731444"
     inkscape:transform-center-y="-0.0031213156"
     transform="matrix(0.47798124,-4.7202228e-5,3.0819297e-5,0.73206662,4.5326909,3.3767374)" />
  <rect
     style="fill:#ffffff;stroke-width:0.6623829"
     id="rect73"
     width="6.6684852"
     height="1.5847552"
     x="1.0617452"
     y="9.3405819"
     ry="0.43717384" />
  <rect
     style="fill:#ffffff;stroke-width:0.49602646"
     id="rect73-3"
     width="6.6684852"
     height="0.88869697"
     x="1.0617452"
     y="13.179683"
     ry="0.24515778" />
  <path
     style="fill:#000000;stroke-width:0.60684234"
     id="path26"
     sodipodi:type="arc"
     sodipodi:cx="13.387567"
     sodipodi:cy="12.046875"
     sodipodi:rx="1.1444392"
     sodipodi:ry="1.1444392"
     sodipodi:start="6.2724864"
     sodipodi:end="6.2712696"
     d="m 14.53194,12.034631 a 1.1444392,1.1444392 0 0 1 -1.131781,1.156614 1.1444392,1.1444392 0 0 1 -1.156958,-1.13143 1.1444392,1.1444392 0 0 1 1.131077,-1.157302 1.1444392,1.1444392 0 0 1 1.157647,1.130726 l -1.144358,0.01364 z" />
  <path
     style="fill:#ffffff;stroke-width:0.52603561"
     id="path129-2"
     d="m 13.387567,1.526164 c -2.035757,0 -3.6822497,1.6464912 -3.6822497,3.682249 0,2.7616867 3.6822497,6.838462 3.6822497,6.838462 0,0 3.682248,-4.0767753 3.682248,-6.838462 0,-2.0357578 -1.646491,-3.682249 -3.682248,-3.682249 z m 0,4.9973378 c -0.725929,0 -1.31509,-0.5891599 -1.31509,-1.3150888 0,-0.7259291 0.589161,-1.3150889 1.31509,-1.3150889 0.725928,0 1.315088,0.5891598 1.315088,1.3150889 0,0.7259289 -0.58916,1.3150888 -1.315088,1.3150888 z"
     inkscape:connector-curvature="0" />
  <rect
     style="fill:#ffffff;stroke-width:0.5"
     id="rect162"
     width="4.265625"
     height="3.5703125"
     x="11.304687"
     y="3.4375"
     ry="0.28166899" />
  <g
     style="fill:#000000"
     id="g143"
     transform="matrix(0.44849354,0,0,0.44849354,8.0056445,1.3658261)">
    <path
       id="path129"
       d="M 12,2 C 8.13,2 5,5.13 5,9 c 0,5.25 7,13 7,13 0,0 7,-7.75 7,-13 0,-3.87 -3.13,-7 -7,-7 z m 0,9.5 C 10.62,11.5 9.5,10.38 9.5,9 9.5,7.62 10.62,6.5 12,6.5 c 1.38,0 2.5,1.12 2.5,2.5 0,1.38 -1.12,2.5 -2.5,2.5 z"
       inkscape:connector-curvature="0" />
    <path
       id="path131"
       d="M 0,0 H 24 V 24 H 0 Z"
       inkscape:connector-curvature="0"
       style="fill:none" />
  </g>
  <rect
     style="fill:#ffffff;stroke-width:0.6507355"
     id="rect73-1"
     width="6.6684852"
     height="1.5295124"
     x="1.0617452"
     y="13.179683"
     ry="0.42193449" />
</svg>
