<svg xmlns="http://www.w3.org/2000/svg" xmlns:xlink="http://www.w3.org/1999/xlink" version="1.1" x="0px" y="0px" viewBox="0 0 100 125" enable-background="new 0 0 100 100" xml:space="preserve"><path d="M66.854,39.781c-1.214,0-2.343,0.362-3.291,0.979c-1.057-1.78-2.993-2.979-5.209-2.979c-1.213,0-2.342,0.362-3.291,0.979  c-1.057-1.779-2.992-2.979-5.208-2.979c-0.869,0-1.694,0.188-2.442,0.519v-2.527c1.146,0.695,2.383,1.26,3.396,1.26  c2.652,0,4.811-2.158,4.811-4.811c0-2.653-2.158-4.813-4.811-4.813c-1.013,0-2.25,0.565-3.396,1.262v-0.26  c0-3.34-2.718-6.059-6.058-6.059s-6.058,2.719-6.058,6.059v0.26c-1.147-0.696-2.384-1.262-3.397-1.262  c-2.653,0-4.812,2.159-4.812,4.812c0,2.653,2.159,4.812,4.812,4.812c1.013,0,2.25-0.564,3.397-1.261v27.067  c0,10.371,8.438,18.808,18.808,18.808c10.37,0,18.808-8.437,18.808-18.808v-15C72.912,42.498,70.193,39.781,66.854,39.781z   M50.809,29.025c0.658,0,1.195,0.537,1.195,1.196c0,0.654-0.528,1.187-1.18,1.195c-0.379-0.045-1.26-0.529-2.235-1.196  C49.569,29.55,50.449,29.063,50.809,29.025z M41.354,23.97c1.347,0,2.442,1.095,2.442,2.441v2.003h-4.884v-2.003  C38.913,25.064,40.008,23.97,41.354,23.97z M31.884,31.417c-0.652-0.009-1.181-0.542-1.181-1.196c0-0.659,0.536-1.195,1.172-1.195  c0.374,0.038,1.261,0.524,2.244,1.196C33.146,30.888,32.265,31.372,31.884,31.417z M54.104,76.031  c-8.377,0-15.192-6.815-15.192-15.192v-28.81h4.884v20.56c0,0.998,0.81,1.808,1.808,1.808s1.808-0.81,1.808-1.808v-10.75  c0-1.347,1.095-2.442,2.442-2.442s2.442,1.096,2.442,2.442v10.75c0,0.998,0.809,1.808,1.808,1.808s1.808-0.81,1.808-1.808v-8.75  c0-1.347,1.096-2.442,2.441-2.442c1.347,0,2.441,1.096,2.441,2.442v8.75c0,0.998,0.811,1.808,1.809,1.808s1.809-0.81,1.809-1.808  v-6.75c0-1.347,1.095-2.442,2.441-2.442s2.441,1.096,2.441,2.442v15C69.295,69.216,62.48,76.031,54.104,76.031z"/><text x="0" y="115" fill="#000000" font-size="5px" font-weight="bold" font-family="'Helvetica Neue', Helvetica, Arial-Unicode, Arial, Sans-serif">Created by Sergey Demushkin</text><text x="0" y="120" fill="#000000" font-size="5px" font-weight="bold" font-family="'Helvetica Neue', Helvetica, Arial-Unicode, Arial, Sans-serif">from the Noun Project</text></svg>